<svg width="34.049" height="24.064" viewBox="0 0 34.049 24.064" xmlns="http://www.w3.org/2000/svg"><g id="svgGroup" stroke-linecap="round" fill-rule="evenodd" font-size="9pt" stroke="#1b1b1b" stroke-width="0.2mm" fill="#1b1b1b" style="stroke:#1b1b1b;stroke-width:0.2mm;fill:#1b1b1b"><path d="M 19.424 20.832 L 21.152 19.328 A 9.27 9.27 0 0 0 22.803 20.718 A 8.083 8.083 0 0 0 23.744 21.248 A 6.572 6.572 0 0 0 25.349 21.762 Q 26.072 21.9 26.898 21.918 A 11.41 11.41 0 0 0 27.136 21.92 A 8.806 8.806 0 0 0 28.453 21.827 Q 29.509 21.667 30.288 21.232 A 2.431 2.431 0 0 0 31.086 20.544 Q 31.52 19.946 31.52 19.072 A 2.832 2.832 0 0 0 31.484 18.604 Q 31.426 18.263 31.28 18 Q 31.04 17.568 30.624 17.312 A 3.552 3.552 0 0 0 29.885 16.97 A 4.095 4.095 0 0 0 29.696 16.912 Q 29.184 16.768 28.608 16.672 L 26.016 16.288 Q 25.152 16.16 24.144 15.936 A 6.277 6.277 0 0 1 22.568 15.364 A 5.82 5.82 0 0 1 22.304 15.216 Q 21.472 14.72 20.912 13.888 A 3.075 3.075 0 0 1 20.493 12.932 Q 20.387 12.523 20.361 12.041 A 6.006 6.006 0 0 1 20.352 11.712 A 5.281 5.281 0 0 1 20.454 10.65 A 3.941 3.941 0 0 1 20.848 9.552 Q 21.344 8.64 22.24 8.016 A 5.915 5.915 0 0 1 23.554 7.335 A 7.384 7.384 0 0 1 24.352 7.088 A 10.116 10.116 0 0 1 25.96 6.827 A 12.517 12.517 0 0 1 27.008 6.784 A 12.026 12.026 0 0 1 28.855 6.919 Q 29.882 7.078 30.75 7.427 A 7.372 7.372 0 0 1 30.896 7.488 Q 32.544 8.192 33.728 9.44 L 32.064 11.008 A 4.84 4.84 0 0 0 31.74 10.652 Q 31.571 10.483 31.371 10.311 A 7.867 7.867 0 0 0 31.344 10.288 A 4.333 4.333 0 0 0 30.831 9.915 A 5.878 5.878 0 0 0 30.288 9.616 Q 29.669 9.314 28.845 9.123 A 9.341 9.341 0 0 0 28.832 9.12 A 7.074 7.074 0 0 0 27.996 8.982 Q 27.561 8.936 27.073 8.929 A 12.009 12.009 0 0 0 26.912 8.928 A 9.127 9.127 0 0 0 25.807 8.99 Q 24.643 9.133 23.92 9.6 Q 22.88 10.272 22.88 11.552 A 2.832 2.832 0 0 0 22.917 12.02 Q 22.974 12.361 23.12 12.624 Q 23.36 13.056 23.776 13.312 A 3.407 3.407 0 0 0 24.401 13.611 A 4.08 4.08 0 0 0 24.72 13.712 Q 25.248 13.856 25.792 13.952 L 28.384 14.336 Q 29.28 14.464 30.272 14.688 Q 31.264 14.912 32.096 15.408 Q 32.928 15.904 33.488 16.736 A 3.075 3.075 0 0 1 33.907 17.692 Q 34.013 18.101 34.039 18.583 A 6.006 6.006 0 0 1 34.048 18.912 A 5.078 5.078 0 0 1 33.769 20.634 A 4.292 4.292 0 0 1 32.144 22.72 A 6.815 6.815 0 0 1 30.003 23.707 Q 29.071 23.964 27.964 24.036 A 13.697 13.697 0 0 1 27.072 24.064 A 12.802 12.802 0 0 1 24.96 23.899 Q 23.769 23.699 22.775 23.26 A 7.832 7.832 0 0 1 22.608 23.184 Q 20.736 22.304 19.424 20.832 Z M 11.68 23.68 L 11.68 20.992 L 11.552 20.992 A 6.048 6.048 0 0 1 10.158 22.803 Q 8.699 24.064 6.464 24.064 A 6.505 6.505 0 0 1 4.292 23.717 A 5.455 5.455 0 0 1 1.712 21.792 Q 0.353 19.988 0.073 17.033 A 17.079 17.079 0 0 1 0 15.424 A 15.906 15.906 0 0 1 0.167 13.042 Q 0.363 11.754 0.787 10.71 A 7.279 7.279 0 0 1 1.712 9.056 A 5.49 5.49 0 0 1 5.725 6.82 A 7.516 7.516 0 0 1 6.464 6.784 A 6.171 6.171 0 0 1 8.683 7.164 Q 10.257 7.766 11.245 9.321 A 7.224 7.224 0 0 1 11.552 9.856 L 11.68 9.856 L 11.68 0 L 14.24 0 L 14.24 23.68 L 11.68 23.68 Z M 11.68 18.4 L 11.68 12.448 A 3.497 3.497 0 0 0 11.606 11.714 A 2.713 2.713 0 0 0 11.344 10.992 Q 11.008 10.368 10.432 9.936 Q 9.856 9.504 9.088 9.28 A 5.693 5.693 0 0 0 7.724 9.061 A 6.498 6.498 0 0 0 7.456 9.056 Q 5.216 9.056 3.984 10.416 A 4.629 4.629 0 0 0 2.898 12.58 A 6.72 6.72 0 0 0 2.752 14.016 L 2.752 16.832 A 6.612 6.612 0 0 0 2.925 18.388 A 4.596 4.596 0 0 0 3.984 20.432 A 4.012 4.012 0 0 0 6.155 21.659 A 6.034 6.034 0 0 0 7.456 21.792 A 5.949 5.949 0 0 0 8.748 21.655 A 5.365 5.365 0 0 0 9.088 21.568 A 4.422 4.422 0 0 0 9.973 21.207 A 3.8 3.8 0 0 0 10.432 20.912 Q 11.008 20.48 11.344 19.856 A 2.781 2.781 0 0 0 11.64 18.948 A 3.644 3.644 0 0 0 11.68 18.4 Z" vector-effect="non-scaling-stroke"/></g></svg>